<?xml version="1.0" encoding="UTF-8" standalone="no"?>
<!-- Generator: Adobe Illustrator 19.2.0, SVG Export Plug-In . SVG Version: 6.00 Build 0)  -->

<svg
   version="1.1"
   id="Layer_1"
   x="0px"
   y="0px"
   viewBox="0 0 685.79999 535"
   xml:space="preserve"
   sodipodi:docname="icon.svg"
   width="685.79999"
   height="535"
   inkscape:version="1.1 (c4e8f9e, 2021-05-24)"
   xmlns:inkscape="http://www.inkscape.org/namespaces/inkscape"
   xmlns:sodipodi="http://sodipodi.sourceforge.net/DTD/sodipodi-0.dtd"
   xmlns:xlink="http://www.w3.org/1999/xlink"
   xmlns="http://www.w3.org/2000/svg"
   xmlns:svg="http://www.w3.org/2000/svg"><defs
   id="defs231" /><sodipodi:namedview
   id="namedview229"
   pagecolor="#ffffff"
   bordercolor="#666666"
   borderopacity="1.0"
   inkscape:pageshadow="2"
   inkscape:pageopacity="0.0"
   inkscape:pagecheckerboard="0"
   showgrid="false"
   inkscape:zoom="0.27083333"
   inkscape:cx="341.53846"
   inkscape:cy="265.84615"
   inkscape:window-width="784"
   inkscape:window-height="480"
   inkscape:window-x="0"
   inkscape:window-y="25"
   inkscape:window-maximized="0"
   inkscape:current-layer="Layer_1" />
<style
   type="text/css"
   id="style137">
	.st0{fill:#FFFFFF;}
	.st1{fill:#0076AE;}
	.st2{fill:#066489;}
	.st3{fill:#0A4C60;}
	.st4{clip-path:url(#SVGID_2_);fill:#37AA37;}
	.st5{clip-path:url(#SVGID_4_);fill:#1F871F;}
	.st6{clip-path:url(#SVGID_6_);fill:#37AA37;}
	.st7{clip-path:url(#SVGID_8_);fill:#1F871F;}
	.st8{clip-path:url(#SVGID_10_);}
	.st9{fill:none;stroke:#F8DF88;stroke-width:6.5201;stroke-linecap:round;stroke-miterlimit:10;}
	.st10{fill:none;stroke:#F8DF88;stroke-width:6.5201;stroke-linecap:round;stroke-miterlimit:10;stroke-dasharray:16.3184,16.3184;}
	
		.st11{clip-path:url(#SVGID_12_);fill:none;stroke:#F8DF88;stroke-width:6.5201;stroke-linecap:round;stroke-miterlimit:10;stroke-dasharray:16.3001;}
	.st12{fill:#CC333F;}
</style>
<g
   id="Layer_1_1_"
   transform="translate(-137.1,-212.5)">
	<g
   id="g225">
		<polygon
   class="st0"
   points="137.1,234 362.4,273.1 362.4,744.2 137.1,705.1 "
   id="polygon139" />
		<polygon
   class="st0"
   points="362.4,273.1 597.6,240.5 597.6,711.6 362.4,744.2 "
   id="polygon141" />
		<polygon
   class="st0"
   points="597.6,240.5 822.9,276.4 822.9,747.5 597.6,711.6 "
   id="polygon143" />
		<polygon
   class="st1"
   points="172.1,276 362.4,308.6 362.4,708.7 172.1,676.1 "
   id="polygon145" />
		<polygon
   class="st2"
   points="362.4,308.6 597.6,276 597.6,676.1 362.4,708.7 "
   id="polygon147" />
		<polygon
   class="st3"
   points="597.6,276 787.9,308.6 787.9,708.7 597.6,676.1 "
   id="polygon149" />
		<g
   id="g219">
			<g
   id="g159">
				<defs
   id="defs152">
					<polygon
   id="SVGID_1_"
   points="172.1,276 172.1,676.1 362.4,708.7 597.6,676.1 787.9,708.7 787.9,308.6 597.6,276 362.4,308.6 " />
				</defs>
				<clipPath
   id="SVGID_2_">
					<use
   xlink:href="#SVGID_1_"
   style="overflow:visible"
   id="use154"
   x="0"
   y="0"
   width="100%"
   height="100%" />
				</clipPath>
				<path
   class="st4"
   d="m 224,471.1 c -2.5,1.1 -5,2.4 -6.7,4.6 -3.3,4.5 -1.3,11.4 3.1,15 4.3,3.6 10.2,4.7 15.7,5.4 4,0.5 8.7,1.2 10.7,4.8 3.1,5.5 -2.8,11.7 -4,17.9 -1.4,7.5 4.4,14.9 3,22.4 -0.8,4.4 -4.2,8.4 -3.9,12.9 0.4,5.5 5.7,9 10,12.4 4.3,3.4 8.2,9.5 5,14 -2,2.8 -6.3,4.1 -6.7,7.5 -0.2,1.8 0.9,3.5 2.1,4.9 13.6,16.2 38.7,12.9 59.5,16.7 5.3,1 10.7,2.6 14.4,6.5 8.9,9.4 2.7,25.7 8.6,37.2 2.2,4.4 6.1,7.8 8.5,12.1 8.8,15.6 -4,35.6 0.8,52.8 1,3.6 3,7.3 6.4,8.8 6.3,2.8 13.4,-3.3 15.3,-10 1.9,-6.6 0.6,-13.7 1.5,-20.6 1.6,-12.1 10,-22.3 19.5,-29.9 9.5,-7.6 20.4,-13.4 30,-21 18.7,-14.7 31.7,-36.4 36.1,-59.8 0.8,-4 1.3,-8.3 3.5,-11.7 4.1,-6.5 12.7,-8.5 18,-14.1 0.8,-0.8 1.5,-1.9 1.5,-3 0,-1 -0.7,-1.9 -1.4,-2.7 -11,-13 -29.6,-19 -46,-14.8 -7.7,2 -15,6 -23,6.4 -15,0.8 -28,-14.2 -27.2,-28.8 0.5,-9.3 7.3,-14.3 1.5,-22.8 -3.5,-5.1 -10.4,-9.4 -14.5,-14.9 -18.3,-25.1 -44.1,-26.3 -73.8,-24.7 -23.2,1.2 -46.3,6.8 -67.5,16.5 z"
   clip-path="url(#SVGID_2_)"
   id="path157" />
			</g>
			<g
   id="g169">
				<defs
   id="defs162">
					<polygon
   id="SVGID_3_"
   points="172.1,276 172.1,676.1 362.4,708.7 597.6,676.1 787.9,708.7 787.9,308.6 597.6,276 362.4,308.6 " />
				</defs>
				<clipPath
   id="SVGID_4_">
					<use
   xlink:href="#SVGID_3_"
   style="overflow:visible"
   id="use164"
   x="0"
   y="0"
   width="100%"
   height="100%" />
				</clipPath>
				<path
   class="st5"
   d="m 809.6,542 c -32.6,-10.1 -68.2,-10 -100.7,0.2 -4.7,1.5 -9.8,3.6 -11.9,8.1 -2.1,4.5 1.9,11.3 6.5,9.7 0.2,6.2 -7.8,8.8 -14,9.5 -14.9,1.7 -29.8,3.3 -44.7,5 -5.3,3.9 -3.1,13 2.4,16.5 5.5,3.5 12.6,3.2 19.1,2.8 17.3,-1.2 34.7,-2 52.1,-2.6 10.5,-0.3 32.9,-5.2 41.7,-0.5 -2.4,7.1 -12.7,7.2 -14.3,14.2 -0.7,3.2 1.6,6.6 4.5,8.1 3,1.5 6.4,1.7 9.8,1.8 10.9,0.4 21.7,0.7 32.6,1.1 1.3,0 2.8,0.2 3.7,1.1 1.3,1.4 0.7,3.9 -0.8,5.1 -1.5,1.2 -3.6,1.4 -5.5,1.6 -12.1,0.9 -24.4,0.1 -36.2,3 -4.6,1.1 -9.9,3.8 -10.3,8.6 -0.2,3.2 2.1,6.3 5,7.8 2.9,1.5 6.2,1.8 9.5,2.1 18.2,1.4 33.2,0.9 50.5,-3.5 18,-4.6 36.1,0.6 37.9,-23.4 1.5,-20.4 -0.9,-41.1 -7.1,-60.6 -1.9,-6 -6.4,-13.1 -12.4,-11.4"
   clip-path="url(#SVGID_4_)"
   id="path167" />
			</g>
			<g
   id="g179">
				<defs
   id="defs172">
					<polygon
   id="SVGID_5_"
   points="172.1,276 172.1,676.1 362.4,708.7 597.6,676.1 787.9,708.7 787.9,308.6 597.6,276 362.4,308.6 " />
				</defs>
				<clipPath
   id="SVGID_6_">
					<use
   xlink:href="#SVGID_5_"
   style="overflow:visible"
   id="use174"
   x="0"
   y="0"
   width="100%"
   height="100%" />
				</clipPath>
				<path
   class="st6"
   d="m 424.5,322.4 c 8.1,2.3 16.8,9.9 13.4,17.6 -1.4,3.2 -4.6,5.3 -7.2,7.7 -2.6,2.4 -4.7,6.2 -3.2,9.4 2.5,5.2 10.3,2.8 15.5,0.5 9,-4 19,-5.6 28.8,-4.5 4.4,0.5 9.3,1.9 11.4,5.8 2.2,4.1 0.5,9.4 2.2,13.7 2,5.2 8.6,7.6 14.1,6.4 5.5,-1.2 10,-5 13.9,-9 8.8,-9.2 15.7,-23.9 8.1,-34.1 -12.4,-16.8 -30.4,-10.7 -29.4,-37.5 0.6,-13.8 4.9,-30.7 -8.2,-40.5 -21.7,-16.2 -57.6,9.1 -72.2,24.5 -19.4,20.4 -11,33.2 12.8,40 z"
   clip-path="url(#SVGID_6_)"
   id="path177" />
			</g>
			<g
   id="g189">
				<defs
   id="defs182">
					<polygon
   id="SVGID_7_"
   points="172.1,276 172.1,676.1 362.4,708.7 597.6,676.1 787.9,708.7 787.9,308.6 597.6,276 362.4,308.6 " />
				</defs>
				<clipPath
   id="SVGID_8_">
					<use
   xlink:href="#SVGID_7_"
   style="overflow:visible"
   id="use184"
   x="0"
   y="0"
   width="100%"
   height="100%" />
				</clipPath>
				<path
   class="st7"
   d="m 428.5,539.4 c -7.7,2 -15,6 -23,6.4 -15,0.8 -28,-14.2 -27.2,-28.8 0.5,-9.3 7.3,-14.3 1.5,-22.8 -3.5,-5.1 -10.4,-9.4 -14.5,-14.9 -0.9,-1.3 -1.9,-2.5 -2.9,-3.7 V 723 c 1.5,-1.8 2.7,-3.9 3.3,-6 1.9,-6.6 0.6,-13.7 1.5,-20.6 1.6,-12.1 10,-22.3 19.5,-29.9 9.5,-7.6 20.4,-13.4 30,-21 18.7,-14.7 31.7,-36.4 36.1,-59.8 0.8,-4 1.3,-8.3 3.5,-11.7 4.1,-6.5 12.7,-8.5 18,-14.1 0.8,-0.8 1.5,-1.9 1.5,-3 0,-1 -0.7,-1.9 -1.4,-2.7 -10.8,-13 -29.4,-19 -45.9,-14.8 z"
   clip-path="url(#SVGID_8_)"
   id="path187" />
			</g>
			<g
   id="g207">
				<defs
   id="defs192">
					<polygon
   id="SVGID_9_"
   points="172.1,276 172.1,676.1 362.4,708.7 597.6,676.1 787.9,708.7 787.9,308.6 597.6,276 362.4,308.6 " />
				</defs>
				<clipPath
   id="SVGID_10_">
					<use
   xlink:href="#SVGID_9_"
   style="overflow:visible"
   id="use194"
   x="0"
   y="0"
   width="100%"
   height="100%" />
				</clipPath>
				<g
   class="st8"
   clip-path="url(#SVGID_10_)"
   id="g205">
					<g
   id="g203">
						<line
   class="st9"
   x1="635.20001"
   y1="433"
   x2="643.40002"
   y2="433"
   id="line197" />
						<path
   class="st10"
   d="m 659.7,433 h 26.4 c 22.8,0 41.3,18.5 41.3,41.3 v 0.9 c 0,22.8 -18.5,41.3 -41.3,41.3 H 489.4 c -22.8,0 -41.3,-18.5 -41.3,-41.3 V 434.3 C 448.1,411.5 429.6,393 406.8,393 H 188.4"
   id="path199" />
						<line
   class="st9"
   x1="180.2"
   y1="393"
   x2="172.10001"
   y2="393"
   id="line201" />
					</g>
				</g>
			</g>
			<g
   id="g217">
				<defs
   id="defs210">
					<polygon
   id="SVGID_11_"
   points="172.1,276 172.1,676.1 362.4,708.7 597.6,676.1 787.9,708.7 787.9,308.6 597.6,276 362.4,308.6 " />
				</defs>
				<clipPath
   id="SVGID_12_">
					<use
   xlink:href="#SVGID_11_"
   style="overflow:visible"
   id="use212"
   x="0"
   y="0"
   width="100%"
   height="100%" />
				</clipPath>
				<path
   class="st11"
   d="m 407.7,656 h 152.1 c 20.9,0 37.8,-16.9 37.8,-37.8 v -11.8 c 0,-20.9 -16.9,-37.8 -37.8,-37.8 v 0 C 538.9,568.6 522,551.7 522,530.8 V 418.2 c 0,-20.9 16.9,-37.8 37.8,-37.8 h 241.9"
   clip-path="url(#SVGID_12_)"
   id="path215" />
			</g>
		</g>
		<path
   class="st12"
   d="m 618.4,212.5 c -41.6,0 -75.3,33.7 -75.3,75.3 0,0 0,0.3 0,0.9 0.1,4.7 0.5,9.4 1.4,13.9 2.1,13.4 7.1,34.5 19.2,57.8 20.5,39.5 54.6,72.6 54.6,72.6 0,0 34.1,-33 54.6,-72.6 12.1,-23.4 17.1,-44.5 19.2,-57.8 0.9,-4.5 1.4,-9.1 1.4,-13.9 0,-0.6 0,-0.9 0,-0.9 0.1,-41.6 -33.6,-75.3 -75.1,-75.3 z m 0,119.1 c -24.2,0 -43.8,-19.6 -43.8,-43.8 0,-24.2 19.6,-43.8 43.8,-43.8 24.2,0 43.8,19.6 43.8,43.8 -0.1,24.2 -19.7,43.8 -43.8,43.8 z"
   id="path221" />
		<path
   class="st12"
   d="m 309.7,374.3 c -29.3,0 -53.1,23.8 -53.1,53.1 0,0 0,0.2 0,0.6 0,3.3 0.4,6.6 1,9.8 1.5,9.4 5,24.3 13.5,40.8 14.5,27.9 38.5,51.2 38.5,51.2 0,0 24.1,-23.3 38.5,-51.2 8.6,-16.5 12.1,-31.4 13.5,-40.8 0.6,-3.2 1,-6.4 1,-9.8 0,-0.4 0,-0.6 0,-0.6 0.2,-29.3 -23.6,-53.1 -52.9,-53.1 z m 0,84 c -17.1,0 -30.9,-13.8 -30.9,-30.9 0,-17.1 13.8,-30.9 30.9,-30.9 17.1,0 30.9,13.8 30.9,30.9 0,17.1 -13.8,30.9 -30.9,30.9 z"
   id="path223" />
	</g>
</g>
</svg>
