<?xml version="1.0" encoding="UTF-8" standalone="no"?>
<svg
   viewBox="0 0 89.5 89.24"
   version="1.1"
   id="svg8227"
   sodipodi:docname="icon.svg"
   inkscape:version="1.1.1 (3bf5ae0d25, 2021-09-20)"
   xmlns:inkscape="http://www.inkscape.org/namespaces/inkscape"
   xmlns:sodipodi="http://sodipodi.sourceforge.net/DTD/sodipodi-0.dtd"
   xmlns="http://www.w3.org/2000/svg"
   xmlns:svg="http://www.w3.org/2000/svg">
  <sodipodi:namedview
     id="namedview8229"
     pagecolor="#ffffff"
     bordercolor="#666666"
     borderopacity="1.0"
     inkscape:pageshadow="2"
     inkscape:pageopacity="0.0"
     inkscape:pagecheckerboard="0"
     showgrid="false"
     inkscape:zoom="4.0284627"
     inkscape:cx="104.13402"
     inkscape:cy="35.869763"
     inkscape:window-width="1920"
     inkscape:window-height="948"
     inkscape:window-x="1080"
     inkscape:window-y="27"
     inkscape:window-maximized="1"
     inkscape:current-layer="svg8227" />
  <defs
     id="defs8188">
    <style
       id="style8186">.cls-1,.cls-2{fill:#d1e5f9;}.cls-1,.cls-2,.cls-3,.cls-4,.cls-5,.cls-6,.cls-7,.cls-8,.cls-9{stroke:#595959;stroke-miterlimit:10;}.cls-1{opacity:0.36;}.cls-2{opacity:0.44;}.cls-3{fill:#fec93a;}.cls-4,.cls-8,.cls-9{fill:none;}.cls-4{stroke-width:2.93px;stroke-dasharray:1.95 1.95 1.95 1.95 1.95 1.95;}.cls-5{fill:#bf5928;}.cls-6{fill:#b5d761;}.cls-7{fill:#9db1c4;opacity:0.39;}.cls-9{stroke-width:2px;}</style>
  </defs>
  <g
     id="linkes_Panel"
     data-name="linkes Panel">
    <path
       class="cls-1"
       d="M1.46,2.54q.36,37.16.66,74.3s0,0,0,.2L32.94,86.8h.55c-.06-24.53-.13-49.06-.36-74C22.49,9.46,11.86,6.15,1.27,2.69H1.22S1.28,2.69,1.46,2.54Z"
       transform="translate(-0.44 -0.74)"
       id="path8190" />
  </g>
  <g
     id="rechtes_Panel"
     data-name="rechtes Panel">
    <path
       class="cls-2"
       d="M57.26,4c.18,24.49.37,49,.6,73.1,10.4,3.64,20.8,7.28,31.15,11.41-.16-24.54-.33-49.08-.12-73.85A154.37,154.37,0,0,1,57,4h-.05A1.65,1.65,0,0,0,57.26,4Z"
       transform="translate(-0.44 -0.74)"
       id="path8193" />
  </g>
  <g
     id="Inseln">
    <path
       class="cls-3"
       d="M27.38,85c-.82-2.85-3.45-4.78-6.1-6.11s-5.54-2.35-7.7-4.37-3.4-5.5-1.8-8l8.37-13.07c1.71-2.67,5.6-3.09,8.55-1.95S34,54.9,36.47,56.88s5.46,3.71,8.62,3.41a5.44,5.44,0,0,1,1,10.82A5.55,5.55,0,1,0,47.9,82c-4.7,1.79-9.4,3.58-14.13,5.48A43.68,43.68,0,0,1,27.38,85Z"
       transform="translate(-0.44 -0.74)"
       id="path8196" />
    <path
       class="cls-3"
       d="M24.42,10l-.51,13.2A6.68,6.68,0,0,0,34.32,29a12.06,12.06,0,0,1,12.22-.6A4.24,4.24,0,0,0,52.73,24L49.9,6.45c-4.06,2-8.17,4-12.61,4.93S28,12,24.43,9.15C24.44,9.15,24.46,9.15,24.42,10Z"
       transform="translate(-0.44 -0.74)"
       id="path8198" />
    <path
       class="cls-3"
       d="M88.43,39.7a14,14,0,0,1-5.7-10c-.57-6.15-7-11.1-13.07-10.09s-10.57,7.75-9.13,13.76A126.42,126.42,0,0,1,64,60.65c.06,3.25,3.55,5.45,6.78,5.73s6.45-.7,9.69-.72,6.94,1.36,7.91,4.46C88.25,59.88,88.13,49.65,88.43,39.7Z"
       transform="translate(-0.44 -0.74)"
       id="path8200" />
  </g>
  <g
     id="Pfad">
    <path
       class="cls-4"
       d="M14.44,30.35C9.6,36.79,7.66,45.42,10.35,52.93S20.69,66.35,29,66.35s16.32-6.63,16.62-14.56c.19-4.85.4-9.8,2.15-14.35s5.37-8.73,10.26-10S69,28.65,70.25,33.34l4.36,16"
       transform="translate(-0.44 -0.74)"
       id="path8203" />
  </g>
  <g
     id="rote_Orte"
     data-name="rote Orte">
    <path
       class="cls-5"
       d="M74.83,37.78a7.09,7.09,0,1,1-.5-.07l.71.11Z"
       transform="translate(-0.44 -0.74)"
       id="path8206" />
    <path
       class="cls-5"
       d="M48.49,35.7a7.21,7.21,0,1,1-.58-.09A5.19,5.19,0,0,1,48.49,35.7Z"
       transform="translate(-0.44 -0.74)"
       id="path8208" />
  </g>
  <g
     id="grüne_Orte"
     data-name="grüne Orte">
    <path
       class="cls-6"
       d="M35,59.05A7.06,7.06,0,0,1,30.45,71.6a7.06,7.06,0,1,1,4.11-12.9A3.28,3.28,0,0,1,35,59.05Z"
       transform="translate(-0.44 -0.74)"
       id="path8211" />
    <path
       class="cls-6"
       d="M16.6,20.13a7.24,7.24,0,0,1-.08,13.73,7.43,7.43,0,0,1-8.07-2.52,7.44,7.44,0,0,1-.19-8.45A7.33,7.33,0,0,1,16.6,20.13Z"
       transform="translate(-0.44 -0.74)"
       id="path8213" />
  </g>
  <g
     id="mittleres_Panel"
     data-name="mittleres Panel">
    <path
       class="cls-7"
       d="M33.59,12.36c-.07,24.69-.14,49.37-.28,74.26,8.15-3.25,16.3-6.51,24.68-9.45-.43-24.45-.85-48.89-.74-73.37C49.2,6.68,41.15,9.57,33.59,12.36Z"
       transform="translate(-0.44 -0.74)"
       id="path8216" />
  </g>
  <g
     id="Faltkanten">
    <path
       class="cls-8"
       d="M33.45,87.12,33.58,12"
       transform="translate(-0.44 -0.74)"
       id="path8219" />
    <path
       class="cls-8"
       d="M57.64,77.15,57.47,3.68"
       transform="translate(-0.44 -0.74)"
       id="path8221" />
  </g>
  <g
     id="Outline">
    <path
       class="cls-9"
       d="M1.48,2.11c10.59,3.35,21.19,6.69,31.88,10Q45.54,7.8,57.75,3.56A115.25,115.25,0,0,0,88.94,15.09c-.1,24.54-.19,49.09-.24,73.46-10.28-3.82-20.55-7.64-30.54-11.23C49.94,80.73,41.72,84.13,33.28,87c-10.51-3.35-21-6.69-31.22-10.14C2.07,51.91,2.09,26.93,1.48,2.11Z"
       transform="translate(-0.44 -0.74)"
       id="path8224" />
  </g>
  <path
     style="fill:#b7b7b7;fill-opacity:1;stroke-width:0.019517"
     d="m 80.463651,68.517202 q -0.64406,0 -1.36619,0.156136 -0.78068,0.195169 -1.28812,0.468407 -0.64406,0.312271 -1.17102,0.722127 -0.52695,0.409856 -0.97584,0.975847 -0.1171,0.175653 -0.1171,0.370822 0.039,0.234204 0.20492,0.351305 0.1659,0.117102 0.37083,0.09759 0.20492,-0.01952 0.34154,-0.175652 0.35131,-0.468407 0.81971,-0.829471 0.46841,-0.361063 0.93682,-0.595267 0.4684,-0.234203 1.09295,-0.390339 0.56599,-0.117101 1.1515,-0.117101 1.07343,0 1.97121,0.409856 0.89778,0.370822 1.63942,1.073432 0.66358,0.663576 1.07343,1.629665 0.40986,0.966089 0.40986,1.990729 0,1.02464 -0.39034,1.98097 -0.42937,0.995365 -1.09295,1.619907 -0.72212,0.722127 -1.62966,1.112466 -0.90754,0.390339 -1.98097,0.390339 -0.70261,0 -1.32716,-0.175652 -0.62454,-0.175653 -1.24908,-0.507441 l -1.22957,0.370822 q 0.78068,0.624543 1.76629,0.985606 0.9856,0.361064 2.03952,0.361064 1.22956,0 2.38106,-0.487924 1.05392,-0.44889 1.9517,-1.307636 0.81971,-0.800195 1.30764,-1.951695 0.48792,-1.1515 0.48792,-2.381068 0,-1.229567 -0.48792,-2.381067 -0.44889,-1.09295 -1.29788,-1.941937 -0.84899,-0.848987 -1.96146,-1.317394 -1.13198,-0.507441 -2.38106,-0.507441 z"
     id="path1290" />
  <path
     style="fill:#499dce;fill-opacity:1;stroke:none;stroke-width:0.019517;stroke-opacity:1"
     d="m 79.273111,78.041474 2.94706,-5.074407 q 0.039,-0.117102 0.0293,-0.19517 -0.01,-0.07807 -0.0585,-0.146377 -0.0488,-0.06831 -0.15613,-0.107343 -0.10735,-0.03903 -0.20493,0 l -5.67943,1.776042 -0.0976,0.05855 -0.0781,0.07807 -3.1032,5.05489 q -0.0585,0.07807 -0.0585,0.165894 0,0.08783 0.0781,0.185411 0.0781,0.09758 0.1659,0.117102 0.0878,0.01952 0.16589,0 l 5.85509,-1.776043 z"
     id="path1210" />
</svg>
