<svg width="24" height="24" viewBox="0 0 24 24" fill="none" xmlns="http://www.w3.org/2000/svg">
<g clip-path="url(#clip0_1_2)">

<path d="M1 1L1 18" stroke="black" stroke-width="2" stroke-linecap="round"/>
<path d="M1 1L8 6.00001" stroke="black" stroke-width="2" stroke-linecap="round"/>
<path d="M1 18L8 23" stroke="black" stroke-width="2" stroke-linecap="round"/>
<path d="M15 1L23 6M15 18.5L23 23" stroke="black" stroke-width="2" stroke-linecap="round"/>
<path d="M23 6V23" stroke="black" stroke-width="2" stroke-linecap="round"/>
<path d="M23 6V23" stroke="black" stroke-width="2" stroke-linecap="round"/>
<path d="M7 15.5C7 16.3284 6.32843 17 5.5 17C4.67157 17 4 16.3284 4 15.5C4 14.6716 4.67157 14 5.5 14C6.32843 14 7 14.6716 7 15.5Z" fill="#020202" stroke="black" stroke-width="2"/>
<path d="M16 6.5C16 7.32843 15.3284 8 14.5 8C13.6716 8 13 7.32843 13 6.5C13 5.67157 13.6716 5 14.5 5C15.3284 5 16 5.67157 16 6.5Z" fill="black" stroke="black" stroke-width="2"/>
<path d="M20 15.5C20 16.3284 19.3284 17 18.5 17C17.6716 17 17 16.3284 17 15.5C17 14.6716 17.6716 14 18.5 14C19.3284 14 20 14.6716 20 15.5Z" stroke="black" stroke-width="2"/>
<path d="M8 23L15 18.5M8.00001 6.00002L15 1.00001" stroke="black" stroke-width="2" stroke-linecap="round"/>
<path d="M7.5 14L13 8" stroke="black" stroke-width="2" stroke-linecap="square" stroke-dasharray="1 3"/>
<path d="M16 8L18 14" stroke="black" stroke-width="2" stroke-linecap="square" stroke-dasharray="1 3"/>
</g>
<defs>
<clipPath id="clip0_1_2">
<rect width="24" height="24" fill="black"/>
</clipPath>
</defs>
</svg>
